<svg width="22" height="28" viewBox="0 0 22 28" fill="none" xmlns="http://www.w3.org/2000/svg">
<path fill-rule="evenodd" clip-rule="evenodd" d="M11.2536 3.788L17.4272 11.038L18.1709 10.1646V3.788H11.2534H11.2536ZM19.8325 13.8626L21.9932 16.4002H22V28H0.233805V16.4002H0.240787L2.16768 14.1374L0.00698223 11.5998H0V0H21.7662V11.5998H21.7592L19.8323 13.8626H19.8325ZM4.57296 11.3129L10.9806 3.78821H3.59525V10.1648L4.57296 11.3129ZM11.0197 24.212L17.4274 16.6873L18.4051 17.8354V24.212H11.0199H11.0197ZM4.57296 16.9618L10.7468 24.212H3.82925V17.8354L4.57296 16.9618ZM13.6564 15.4665L10.8831 18.7231L6.97804 14.1372L11.1171 9.27651L13.8904 12.5333L15.0224 13.8624L13.6566 15.4662L13.6564 15.4665Z" fill="white"/>
</svg>
