<svg width="50" height="49" viewBox="0 0 64 63" fill="none" xmlns="http://www.w3.org/2000/svg">
<rect x="3.47596" y="2.72596" width="57.5481" height="57.5481" rx="27.2596" fill="#222532"/>
<rect x="3.47596" y="2.72596" width="57.5481" height="57.5481" rx="27.2596" stroke="#3B4051" stroke-width="5.04808"/>
<path fill-rule="evenodd" clip-rule="evenodd" d="M32.8208 22.2469L38.2087 28.4611L38.8578 27.7125V22.2469H32.8206H32.8208ZM40.3079 30.8823L42.1936 33.0573H42.1995V43H23.2036V33.0573H23.2097L24.8913 31.1177L23.0056 28.9427H22.9995V19H41.9955V28.9427H41.9894L40.3077 30.8823H40.3079ZM26.9905 28.6968L32.5826 22.247H26.1372V27.7127L26.9905 28.6968ZM32.6167 39.7531L38.2089 33.3034L39.0622 34.2875V39.7531H32.6169H32.6167ZM26.9905 33.5387L32.3786 39.7531H26.3414V34.2875L26.9905 33.5387ZM34.9179 32.257L32.4975 35.0483L29.0894 31.1176L32.7017 26.9513L35.1221 29.7429L36.1099 30.8821L34.918 32.2568L34.9179 32.257Z" fill="#EEA20E"/>
</svg>
