<svg width="27" height="28" viewBox="0 0 27 28" fill="none" xmlns="http://www.w3.org/2000/svg">
<path d="M27 14C27 17.5804 25.5777 21.0142 23.0459 23.5459C20.5142 26.0777 17.0804 27.5 13.5 27.5C9.91958 27.5 6.4858 26.0777 3.95406 23.5459C1.42232 21.0142 0 17.5804 0 14C0 10.4196 1.42232 6.9858 3.95406 4.45406C6.4858 1.92232 9.91958 0.5 13.5 0.5C17.0804 0.5 20.5142 1.92232 23.0459 4.45406C25.5777 6.9858 27 10.4196 27 14ZM12.15 15.35V19.4C12.15 19.758 12.2922 20.1014 12.5454 20.3546C12.7986 20.6078 13.142 20.75 13.5 20.75C13.858 20.75 14.2014 20.6078 14.4546 20.3546C14.7078 20.1014 14.85 19.758 14.85 19.4V15.35C14.85 14.992 14.7078 14.6486 14.4546 14.3954C14.2014 14.1422 13.858 14 13.5 14C13.142 14 12.7986 14.1422 12.5454 14.3954C12.2922 14.6486 12.15 14.992 12.15 15.35ZM13.5 7.925C12.9629 7.925 12.4479 8.13835 12.0681 8.51811C11.6883 8.89787 11.475 9.41294 11.475 9.95C11.475 10.4871 11.6883 11.0021 12.0681 11.3819C12.4479 11.7617 12.9629 11.975 13.5 11.975C14.0371 11.975 14.5521 11.7617 14.9319 11.3819C15.3117 11.0021 15.525 10.4871 15.525 9.95C15.525 9.41294 15.3117 8.89787 14.9319 8.51811C14.5521 8.13835 14.0371 7.925 13.5 7.925Z" fill="#EEA20E"/>
</svg>
