<svg width="62" height="62" viewBox="0 0 62 62" fill="none" xmlns="http://www.w3.org/2000/svg">
<rect x="2.5" y="2.5" width="57" height="57" rx="27" fill="#222532"/>
<rect x="2.5" y="2.5" width="57" height="57" rx="27" stroke="#3B4051" stroke-width="5"/>
<path d="M31.4737 37.7368C31.4737 38.1842 31.5263 38.6184 31.5921 39.0526H19.6316C18.9336 39.0526 18.2643 38.7754 17.7708 38.2819C17.2773 37.7883 17 37.119 17 36.4211V20.6316C17 19.1711 18.1711 18 19.6316 18H27.5263L30.1579 20.6316H40.6842C41.3821 20.6316 42.0515 20.9088 42.545 21.4024C43.0385 21.8959 43.3158 22.5652 43.3158 23.2632V30.9079C42.1579 30.2368 40.8158 29.8421 39.3684 29.8421C35.0132 29.8421 31.4737 33.3816 31.4737 37.7368ZM40.6842 36.4211V32.4737H38.0526V36.4211H34.1053V39.0526H38.0526V43H40.6842V39.0526H44.6316V36.4211H40.6842Z" fill="#EEA20E"/>
</svg>
