<svg width="32" height="35" viewBox="0 0 32 35" fill="none" xmlns="http://www.w3.org/2000/svg">
<path d="M16.3771 22.0879C15.2126 22.0879 14.5332 23.0871 14.5332 24.4252C14.5332 25.7717 15.2334 26.7233 16.3885 26.7233C17.5529 26.7233 18.2211 25.7223 18.2211 24.3843C18.2211 23.1484 17.5643 22.0879 16.3771 22.0879Z" fill="#2CAFEF"/>
<path d="M19.8011 0.720703H4.70241C3.70131 0.720703 2.7412 1.0794 2.03331 1.71789C1.32542 2.35638 0.927734 3.22236 0.927734 4.12532V31.3622C0.927734 32.2652 1.32542 33.1311 2.03331 33.7696C2.7412 34.4081 3.70131 34.7668 4.70241 34.7668H27.3505C28.3516 34.7668 29.3117 34.4081 30.0196 33.7696C30.7275 33.1311 31.1252 32.2652 31.1252 31.3622V10.9345L19.8011 0.720703ZM10.657 27.0281C9.85296 27.6308 8.63185 27.915 7.13897 27.915C6.24248 27.915 5.61022 27.864 5.17991 27.8129V21.053C5.95178 20.9528 6.73097 20.9056 7.51077 20.9118C8.96025 20.9118 9.90015 21.1467 10.6343 21.6472C11.427 22.1783 11.9253 23.026 11.9253 24.2381C11.9253 25.5573 11.393 26.4664 10.657 27.0281ZM16.3001 27.9576C14.0353 27.9576 12.7123 26.4153 12.7123 24.4543C12.7123 22.3928 14.1712 20.8522 16.4247 20.8522C18.7669 20.8522 20.0465 22.4336 20.0465 24.3334C20.0446 26.5889 18.5272 27.9576 16.3001 27.9576ZM25.0857 26.6604C25.6047 26.6604 26.1822 26.5566 26.5238 26.4357L26.7843 27.6495C26.4672 27.7925 25.7538 27.9457 24.8271 27.9457C22.1905 27.9457 20.8316 26.4664 20.8316 24.5053C20.8316 22.1578 22.6869 20.8522 24.997 20.8522C25.8916 20.8522 26.5691 21.0156 26.8749 21.1586L26.5238 22.3945C26.0643 22.2232 25.5715 22.1364 25.0744 22.1391C23.7041 22.1391 22.6397 22.8847 22.6397 24.4168C22.6397 25.794 23.5456 26.6604 25.0857 26.6604ZM19.8011 12.6368H17.9138V4.12532L27.3505 12.6368H19.8011Z" fill="#2CAFEF"/>
<path d="M7.69158 22.1074C7.30845 22.1074 7.05932 22.1381 6.91211 22.1687V26.6713C7.05932 26.7019 7.29713 26.7019 7.5104 26.7019C9.07311 26.7122 10.0904 25.9376 10.0904 24.2932C10.1017 22.8632 9.17503 22.1074 7.69158 22.1074Z" fill="#2CAFEF"/>
</svg>
