<svg width="157" height="104" viewBox="0 0 157 104" fill="none" xmlns="http://www.w3.org/2000/svg">
<path d="M79.5527 13C89.8962 13 99.816 17.1089 107.13 24.4228C114.444 31.7368 118.553 41.6566 118.553 52C118.553 62.3434 114.444 72.2632 107.13 79.5772C99.816 86.8911 89.8962 91 79.5527 91C69.2093 91 59.2895 86.8911 51.9756 79.5772C44.6617 72.2632 40.5527 62.3434 40.5527 52C40.5527 41.6566 44.6617 31.7368 51.9756 24.4228C59.2895 17.1089 69.2093 13 79.5527 13ZM74.6945 59.6941L66.0309 51.025C65.7203 50.7144 65.3516 50.468 64.9458 50.3C64.54 50.1319 64.105 50.0454 63.6658 50.0454C63.2266 50.0454 62.7916 50.1319 62.3858 50.3C61.98 50.468 61.6113 50.7144 61.3007 51.025C60.6735 51.6523 60.3211 52.503 60.3211 53.3901C60.3211 54.2771 60.6735 55.1279 61.3007 55.7551L72.3322 66.7866C72.6419 67.0987 73.0103 67.3465 73.4162 67.5156C73.8221 67.6847 74.2575 67.7717 74.6972 67.7717C75.137 67.7717 75.5723 67.6847 75.9783 67.5156C76.3842 67.3465 76.7526 67.0987 77.0623 66.7866L99.9052 43.9381C100.22 43.6288 100.47 43.2603 100.642 42.8537C100.813 42.4472 100.903 42.0107 100.905 41.5694C100.907 41.1282 100.822 40.6909 100.654 40.2827C100.486 39.8746 100.239 39.5037 99.9272 39.1915C99.6154 38.8793 99.2448 38.6319 98.8369 38.4636C98.429 38.2954 97.9918 38.2095 97.5505 38.211C97.1092 38.2126 96.6726 38.3015 96.2659 38.4726C95.8591 38.6437 95.4903 38.8936 95.1806 39.208L74.6945 59.6941Z" fill="#EEA20E"/>
<path d="M13.1548 45L15.9842 54.1128H25.1401L17.7328 59.7449L20.5622 68.8577L13.1548 63.2257L5.7475 68.8577L8.57685 59.7449L1.16953 54.1128H10.3255L13.1548 45Z" fill="#EEA20E"/>
<path d="M128.155 0L130.984 9.11285H140.14L132.733 14.7449L135.562 23.8577L128.155 18.2257L120.748 23.8577L123.577 14.7449L116.17 9.11285H125.325L128.155 0Z" fill="#EEA20E"/>
<path d="M146.888 64L149.035 70.9062L155.981 70.9062L150.361 75.1745L152.508 82.0807L146.888 77.8124L141.269 82.0807L143.415 75.1745L137.796 70.9062L144.742 70.9062L146.888 64Z" fill="#EEA20E"/>
<path d="M127.767 91.8115L128.938 95.715L132.727 95.715L129.662 98.1275L130.832 102.031L127.767 99.6185L124.702 102.031L125.873 98.1275L122.808 95.715L126.597 95.715L127.767 91.8115Z" fill="#EEA20E"/>
</svg>
