<svg width="30" height="30" viewBox="0 0 40 40" fill="none" xmlns="http://www.w3.org/2000/svg">
<rect x="1.14286" y="1.14286" width="37.7143" height="37.7143" rx="18.8571" fill="#363A4D"/>
<rect x="1.14286" y="1.14286" width="37.7143" height="37.7143" rx="18.8571" stroke="#6A7294" stroke-width="1.71429"/>
<path d="M12.1356 28.0345H13.3826L25.5316 15.8855L24.2847 14.6386L12.1356 26.7876V28.0345ZM11 29.1702V26.3084L25.9677 11.3271C26.085 11.2234 26.2137 11.1431 26.3538 11.0863C26.4938 11.0295 26.6403 11.0008 26.7933 11C26.9462 10.9993 27.0938 11.0235 27.2362 11.0727C27.38 11.1204 27.5125 11.2067 27.6336 11.3316L28.8454 12.5513C28.9703 12.6717 29.0558 12.8042 29.102 12.9488C29.1474 13.0926 29.1702 13.2365 29.1702 13.3803C29.1702 13.5348 29.1444 13.6824 29.0929 13.8232C29.0407 13.9633 28.9582 14.0916 28.8454 14.2082L13.8607 29.1702H11ZM24.8979 15.2723L24.2847 14.6386L25.5316 15.8855L24.8979 15.2723Z" fill="#D9D9D9"/>
</svg>
