<svg width="64" height="64" viewBox="0 0 64 64" fill="none" xmlns="http://www.w3.org/2000/svg">
<path d="M45.0738 20.7969C47.7582 23.9433 49.2212 27.9503 49.1958 32.0861C49.1704 36.2219 47.6582 40.2106 44.9354 43.3238C42.2127 46.437 38.4609 48.467 34.3653 49.0431C30.2698 49.6191 26.1036 48.7028 22.6277 46.4615L45.0738 20.7969ZM32 14.7692C28.7074 14.7726 25.4846 15.7194 22.7133 17.4974C19.942 19.2754 17.7381 21.8102 16.3626 24.8017C14.9871 27.7933 14.4975 31.1164 14.9518 34.3775C15.4061 37.6387 16.7854 40.7014 18.9262 43.2031L41.3877 17.5508C38.5957 15.7299 35.3332 14.7633 32 14.7692ZM64 32C64 38.329 62.1232 44.5159 58.607 49.7782C55.0908 55.0406 50.0931 59.1421 44.2459 61.5641C38.3986 63.9861 31.9645 64.6198 25.7571 63.3851C19.5497 62.1504 13.8479 59.1027 9.37259 54.6274C4.89732 50.1521 1.84961 44.4503 0.614885 38.2429C-0.619842 32.0355 0.0138651 25.6014 2.43587 19.7541C4.85787 13.9069 8.95939 8.90917 14.2218 5.39297C19.4841 1.87677 25.671 0 32 0C40.4837 0.0105848 48.6169 3.3854 54.6157 9.38427C60.6146 15.3831 63.9894 23.5163 64 32ZM54.1538 32C54.1585 26.4678 52.0839 21.1358 48.3415 17.0615L49.8462 15.16C50.0823 14.9215 50.2671 14.6372 50.3893 14.3247C50.5115 14.0121 50.5685 13.6778 50.5568 13.3424C50.5451 13.007 50.4649 12.6776 50.3212 12.3743C50.1775 12.071 49.9733 11.8003 49.7212 11.5789C49.469 11.3574 49.1743 11.1898 48.855 11.0864C48.5357 10.9831 48.1986 10.9461 47.8645 10.9777C47.5304 11.0094 47.2063 11.109 46.9121 11.2706C46.618 11.4321 46.3599 11.652 46.1538 11.9169L44.6431 13.8185C40.1691 10.7361 34.7185 9.40513 29.3274 10.0787C23.9364 10.7523 18.9808 13.3835 15.4028 17.4719C11.8248 21.5604 9.87396 26.8211 9.9211 32.2539C9.96824 37.6866 12.0101 42.9127 15.6585 46.9384L14.1539 48.84C13.7686 49.3352 13.587 49.9589 13.6462 50.5836C13.7054 51.2082 14.0009 51.7867 14.4724 52.2008C14.9438 52.6149 15.5555 52.8333 16.1826 52.8114C16.8097 52.7895 17.4047 52.529 17.8462 52.0831L19.3569 50.1815C22.6775 52.4958 26.5691 53.8555 30.6084 54.1128C34.6478 54.37 38.6803 53.5149 42.2677 51.6405C45.855 49.7661 48.8599 46.9441 50.9555 43.4813C53.0511 40.0186 54.1573 36.0475 54.1538 32Z" fill="#EEA20E"/>
</svg>
