<svg width="29" height="35" viewBox="0 0 29 35" fill="none" xmlns="http://www.w3.org/2000/svg">
<path d="M17.891 0.720703H5.4039C4.15251 0.720703 2.95238 1.16908 2.06752 1.96719C1.18266 2.7653 0.685547 3.84777 0.685547 4.97647V30.5111C0.685547 31.6398 1.18266 32.7222 2.06752 33.5203C2.95238 34.3185 4.15251 34.7668 5.4039 34.7668H24.2773C25.5287 34.7668 26.7288 34.3185 27.6137 33.5203C28.4985 32.7222 28.9956 31.6398 28.9956 30.5111V10.7366C28.9955 10.1723 28.7469 9.6312 28.3044 9.23223L19.5589 1.34417C19.1166 0.94509 18.5166 0.720824 17.891 0.720703ZM18.3794 8.16829V3.91253L25.4569 10.2962H20.7385C20.1128 10.2962 19.5128 10.072 19.0703 9.67293C18.6279 9.27388 18.3794 8.73264 18.3794 8.16829ZM9.84858 14.935L14.8406 20.3377L19.8326 14.9328C20.0331 14.7161 20.3209 14.5801 20.6326 14.5548C20.9443 14.5295 21.2544 14.6168 21.4946 14.7977C21.7349 14.9786 21.8857 15.2381 21.9138 15.5193C21.9419 15.8004 21.845 16.0801 21.6445 16.2968L16.3764 21.9995L21.6445 27.7023C21.8359 27.9198 21.9253 28.1963 21.8938 28.4726C21.8622 28.7489 21.7121 29.0031 21.4756 29.1809C21.239 29.3587 20.9347 29.446 20.6277 29.4242C20.3207 29.4024 20.0354 29.2731 19.8326 29.0641L14.8406 23.6614L9.84858 29.0662C9.64805 29.2829 9.36028 29.4189 9.04859 29.4443C8.7369 29.4696 8.42681 29.3822 8.18654 29.2013C7.94628 29.0205 7.79551 28.7609 7.76742 28.4798C7.73932 28.1987 7.8362 27.919 8.03673 27.7023L13.3048 21.9995L8.03673 16.2968C7.93317 16.19 7.85433 16.0657 7.80484 15.931C7.75536 15.7963 7.73623 15.6541 7.74859 15.5127C7.76095 15.3712 7.80455 15.2335 7.87681 15.1075C7.94907 14.9814 8.04855 14.8697 8.16938 14.7789C8.29021 14.6881 8.42996 14.62 8.58041 14.5786C8.73086 14.5372 8.88896 14.5234 9.04542 14.5379C9.20188 14.5525 9.35354 14.5951 9.49147 14.6633C9.6294 14.7314 9.75082 14.8238 9.84858 14.935Z" fill="#4CFD68"/>
</svg>
