<svg width="50" height="49" viewBox="0 0 64 63" fill="none" xmlns="http://www.w3.org/2000/svg">
<rect x="3.47596" y="2.72596" width="57.5481" height="57.5481" rx="27.2596" fill="#222532"/>
<rect x="3.47596" y="2.72596" width="57.5481" height="57.5481" rx="27.2596" stroke="#3B4051" stroke-width="5.04808"/>
<path d="M34.4857 29.3735V24.6692C36.0198 25.0447 37.5195 25.7599 38.7465 26.885L38.7516 26.878C38.8433 26.9511 38.9545 27.0013 39.081 27.0013C39.2476 27.0013 39.3905 26.9208 39.4891 26.8022L39.4961 26.8036L41.4792 24.008L41.4746 24.0057C41.556 23.9117 41.61 23.7926 41.61 23.6586C41.61 23.5004 41.5388 23.3617 41.4299 23.2635C39.5906 21.5647 37.2421 20.5447 34.4857 20.2381V17.5365C34.4857 17.2401 34.2451 17 33.9487 17H31.8185C31.5221 17 31.282 17.2401 31.282 17.5365V20.1697C26.6801 20.6466 23.9534 23.5785 23.9534 27.0213C23.9534 31.6572 27.7713 32.9866 31.282 33.839V39.1221C29.0276 38.7182 27.1747 37.5499 25.9142 36.2419C25.9054 36.2321 25.8961 36.2237 25.8863 36.2149L25.8621 36.1912L25.8584 36.1963C25.7651 36.1163 25.6467 36.0713 25.5238 36.0692C25.4281 36.0701 25.3344 36.0969 25.2526 36.1467C25.1709 36.1965 25.1041 36.2675 25.0595 36.3522L25.0529 36.3512L23.1335 39.2008L23.1359 39.2054C23.0496 39.301 23.0013 39.4248 23 39.5535C23 39.7242 23.0847 39.8694 23.2085 39.9676L23.2033 39.975C25.0781 41.8498 27.7029 43.2131 31.282 43.5202V46.0515C31.282 46.3479 31.5221 46.588 31.8185 46.588H33.9487C34.2451 46.588 34.4852 46.3474 34.4852 46.0515L34.4857 43.5198C39.4966 43.0079 41.985 40.0774 41.985 36.2931C41.985 31.6237 38.0308 30.2594 34.4857 29.3735ZM31.2815 28.589C29.8842 28.1465 28.9294 27.6346 28.9294 26.6458C28.9294 25.4872 29.7819 24.6692 31.2815 24.4645V28.589ZM34.4857 39.1905V34.6231C35.9858 35.1 37.0425 35.6463 37.0425 36.7705C37.0425 37.8616 36.2241 38.8495 34.4857 39.1905Z" fill="#EEA20E"/>
</svg>
