<svg width="23" height="23" viewBox="0 0 23 23" fill="none" xmlns="http://www.w3.org/2000/svg">
<path d="M8.01839 3.82019C9.43863 1.2734 10.1482 0 11.2097 0C12.2713 0 12.9808 1.2734 14.4011 3.82019L14.7687 4.4793C15.1723 5.20343 15.374 5.5655 15.6879 5.80426C16.0018 6.04302 16.3941 6.13158 17.1788 6.30869L17.8917 6.4701C20.6492 7.09447 22.0269 7.40609 22.3553 8.4609C22.6826 9.51459 21.7433 10.6142 19.8634 12.8124L19.3769 13.3807C18.8434 14.0051 18.5755 14.3178 18.4555 14.7035C18.3356 15.0902 18.3759 15.5072 18.4566 16.34L18.5306 17.0989C18.8142 20.0324 18.9566 21.4986 18.0979 22.1499C17.2393 22.8023 15.948 22.2071 13.3675 21.0189L12.6983 20.7117C11.9652 20.3732 11.5987 20.2051 11.2097 20.2051C10.8208 20.2051 10.4542 20.3732 9.72111 20.7117L9.05303 21.0189C6.47149 22.2071 5.18016 22.8012 4.32263 22.151C3.46287 21.4986 3.60523 20.0324 3.88883 17.0989L3.96281 16.3412C4.04352 15.5072 4.08387 15.0902 3.96281 14.7046C3.84399 14.3178 3.57608 14.0051 3.04251 13.3819L2.55602 12.8124C0.676194 10.6154 -0.263159 9.51571 0.0641574 8.4609C0.392595 7.40609 1.77136 7.09335 4.52889 6.4701L5.24181 6.30869C6.02535 6.13158 6.41656 6.04302 6.73155 5.80426C7.04541 5.5655 7.24718 5.20343 7.65072 4.4793L8.01839 3.82019Z" fill="#EEA20E"/>
</svg>
