<svg width="62" height="62" viewBox="0 0 62 62" fill="none" xmlns="http://www.w3.org/2000/svg">
<rect x="2.5" y="2.5" width="57" height="57" rx="27" fill="#222532"/>
<rect x="2.5" y="2.5" width="57" height="57" rx="27" stroke="#3B4051" stroke-width="5"/>
<path d="M45.1969 39.9937C45.132 40.4251 44.9678 40.8355 44.7173 41.1927C44.4681 41.5437 44.138 41.8295 43.7549 42.026C43.3719 42.2224 42.9471 42.3237 42.5167 42.3213H40.1877C40.022 42.3206 39.8589 42.2807 39.7117 42.2046C39.5646 42.1286 39.4376 42.0187 39.3413 41.8839C39.2437 41.7493 39.1789 41.5938 39.1519 41.4297C39.125 41.2657 39.1367 41.0976 39.1861 40.9388C39.708 39.2742 39.5952 37.398 34.8681 34.3933C34.6754 34.2671 34.5279 34.083 34.4467 33.8674C34.3656 33.6519 34.3551 33.4162 34.4166 33.1943C34.4827 32.9757 34.6169 32.7839 34.7996 32.6469C34.9823 32.5099 35.204 32.4348 35.4323 32.4325C37.4498 32.4606 39.4186 33.0564 41.1131 34.1517C42.8076 35.2469 44.1594 36.7974 45.0135 38.6253C45.187 39.0592 45.2501 39.5294 45.1969 39.9937ZM41.6689 24.4341C41.6651 26.0868 41.0068 27.6708 39.838 28.8393C38.6692 30.0079 37.0851 30.6658 35.4323 30.6692C35.2473 30.6654 35.0664 30.6139 34.9072 30.5196C34.748 30.4254 34.6158 30.2916 34.5236 30.1312C34.4313 29.9708 34.3821 29.7893 34.3807 29.6042C34.3792 29.4192 34.4256 29.2369 34.5154 29.0751C35.379 27.6941 35.8369 26.0981 35.8369 24.4693C35.8369 22.8405 35.379 21.2445 34.5154 19.8635C34.4047 19.7054 34.3394 19.52 34.3266 19.3275C34.3137 19.1349 34.3537 18.9425 34.4424 18.7711C34.531 18.5996 34.6648 18.4557 34.8294 18.3548C34.9939 18.254 35.1829 18.2001 35.3759 18.1989C36.2019 18.1962 37.0197 18.3624 37.779 18.6875C38.5384 19.0126 39.2232 19.4896 39.7913 20.0892C40.9517 21.2609 41.6056 22.8414 41.6124 24.4905L41.6689 24.4341Z" fill="#EEA20E"/>
<path d="M37.7027 39.9514C37.76 40.642 37.6241 41.3349 37.3102 41.9527C36.9963 42.5705 36.5168 43.0888 35.9253 43.4498C35.3357 43.8123 34.6557 44.0028 33.9645 44H20.7424C20.0502 44.003 19.3711 43.8124 18.7815 43.4498C18.1888 43.0909 17.7089 42.5725 17.3966 41.9539C17.0843 41.3354 16.9522 40.6414 17.0154 39.9514C17.0681 39.2632 17.3124 38.6035 17.7207 38.047C18.8449 36.5499 20.2934 35.3267 21.9576 34.4692C23.6218 33.6117 25.4586 33.1421 27.3302 33.0955C29.2081 33.1323 31.0531 33.596 32.7253 34.4514C34.3975 35.3068 35.8531 36.5315 36.9819 38.0329C37.3925 38.5946 37.6427 39.2582 37.7027 39.9514ZM34.2748 23.898C34.2711 25.7319 33.5417 27.4898 32.246 28.7876C30.9503 30.0854 29.1937 30.8177 27.3598 30.8244C26.3387 30.8219 25.3309 30.5933 24.4086 30.1551C23.4863 29.7169 22.6725 29.0799 22.0256 28.2899C21.3787 27.4999 20.9147 26.5765 20.667 25.5859C20.4193 24.5954 20.3939 23.5622 20.5928 22.5607C20.7926 21.559 21.2118 20.6139 21.8205 19.7936C22.4291 18.9732 23.212 18.298 24.1129 17.8164C25.0137 17.3348 26.0101 17.0589 27.0303 17.0084C28.0506 16.958 29.0693 17.1343 30.0132 17.5247C31.2754 18.0462 32.3549 18.9298 33.1156 20.064C33.8763 21.1983 34.2841 22.5323 34.2875 23.898H34.2748Z" fill="#EEA20E"/>
</svg>
