<svg width="32" height="34" viewBox="0 0 44 48" fill="none" xmlns="http://www.w3.org/2000/svg">
    <path fillRule="evenodd" clip-rule="evenodd"
        d="M41.4908 27.661V39.8641C41.4908 41.806 40.7194 43.6684 39.3463 45.0415C37.9732 46.4146 36.1108 47.186 34.1689 47.186H24.4064V27.661H41.4908ZM19.5251 27.661V47.186H9.76255C7.82066 47.186 5.9583 46.4146 4.58518 45.0415C3.21205 43.6684 2.44064 41.806 2.44064 39.8641V27.661H19.5251ZM14.6438 0.813956C16.0291 0.812313 17.3988 1.10624 18.6614 1.6761C19.924 2.24597 21.0505 3.07866 21.9657 4.11858C22.8809 3.07866 24.0074 2.24597 25.2701 1.6761C26.5327 1.10624 27.9024 0.812313 29.2876 0.813956H30.508C31.4789 0.813956 32.4101 1.19966 33.0966 1.88623C33.7832 2.57279 34.1689 3.50397 34.1689 4.47491V5.69523C34.1689 7.47445 33.693 9.14141 32.8632 10.5765H39.0502C40.3448 10.5765 41.5863 11.0908 42.5018 12.0062C43.4172 12.9216 43.9315 14.1632 43.9315 15.4578V20.339C43.9315 21.2274 43.6947 22.0621 43.2774 22.7797H24.4064V15.4578C24.4064 14.8105 24.1492 14.1897 23.6915 13.732C23.2338 13.2743 22.613 13.0171 21.9657 13.0171C21.3184 13.0171 20.6976 13.2743 20.2399 13.732C19.7822 14.1897 19.5251 14.8105 19.5251 15.4578V22.7797H0.654094C0.224555 22.0381 -0.00111233 21.1961 4.12258e-06 20.339V15.4578C4.12258e-06 14.1632 0.514279 12.9216 1.4297 12.0062C2.34511 11.0908 3.58668 10.5765 4.88128 10.5765H11.0683C10.2103 9.093 9.75981 7.40899 9.76255 5.69523V4.47491C9.76255 3.50397 10.1483 2.57279 10.8348 1.88623C11.5214 1.19966 12.4526 0.813956 13.4235 0.813956H14.6438ZM14.6438 5.69523C14.6438 6.98982 15.1581 8.23139 16.0735 9.14681C16.9889 10.0622 18.2305 10.5765 19.5251 10.5765C19.5251 9.28191 19.0108 8.04034 18.0954 7.12492C17.18 6.2095 15.9384 5.69523 14.6438 5.69523ZM29.2876 5.69523C27.993 5.69523 26.7515 6.2095 25.8361 7.12492C24.9206 8.04034 24.4064 9.28191 24.4064 10.5765C25.701 10.5765 26.9425 10.0622 27.8579 9.14681C28.7734 8.23139 29.2876 6.98982 29.2876 5.69523Z"
        fill="#EEA20E" />
</svg>