<svg width="35" height="35" viewBox="0 0 35 35" fill="none" xmlns="http://www.w3.org/2000/svg">
<path d="M0.0722748 6.52402C0.0722748 4.98488 0.683694 3.50879 1.77203 2.42046C2.86036 1.33212 4.33646 0.720703 5.87559 0.720703H28.3151C29.8542 0.720703 31.3303 1.33212 32.4186 2.42046C33.507 3.50879 34.1184 4.98488 34.1184 6.52402V28.9635C34.1184 30.1567 33.7578 31.2663 33.1403 32.1886L19.2588 18.6212C18.6805 18.056 17.904 17.7395 17.0953 17.7395C16.2867 17.7395 15.5101 18.056 14.9319 18.6212L1.05033 32.1886C0.410758 31.2348 0.0702237 30.1119 0.0722748 28.9635V6.52402ZM2.70002 33.8228C3.61307 34.4186 4.7041 34.7668 5.87559 34.7668H28.3151C29.4866 34.7668 30.5776 34.4186 31.4907 33.8228L17.637 20.2817C17.4923 20.14 17.2979 20.0606 17.0953 20.0606C16.8928 20.0606 16.6983 20.14 16.5537 20.2817L2.70002 33.8228ZM27.5413 11.5536C27.5413 10.6301 27.1745 9.74442 26.5215 9.09142C25.8685 8.43842 24.9828 8.07157 24.0593 8.07157C23.1358 8.07157 22.2502 8.43842 21.5972 9.09142C20.9442 9.74442 20.5773 10.6301 20.5773 11.5536C20.5773 12.477 20.9442 13.3627 21.5972 14.0157C22.2502 14.6687 23.1358 15.0356 24.0593 15.0356C24.9828 15.0356 25.8685 14.6687 26.5215 14.0157C27.1745 13.3627 27.5413 12.477 27.5413 11.5536Z" fill="#FFABF7"/>
</svg>
