<svg width="44" height="40" viewBox="0 0 44 40" fill="none" xmlns="http://www.w3.org/2000/svg">
<path d="M42.5222 26.6099L29.2955 4.56554C27.5499 1.65613 24.909 0 21.9996 0C19.0902 0 16.4494 1.65613 14.7037 4.54316L1.47709 26.6099C0.492362 28.2437 0 29.9446 0 31.5559C0 32.8316 0.313321 34.0849 0.939964 35.1815C2.37229 37.6881 5.14742 39.1428 8.57158 39.1428H35.4277C38.8518 39.1428 41.627 37.6881 43.0593 35.1815C43.6859 34.0849 43.9993 32.8987 43.9993 31.6455C44.0216 29.9893 43.5293 28.2661 42.5222 26.6099ZM21.9996 11.0558C23.9019 11.0558 25.4685 12.6224 25.4685 14.5247C25.4685 16.427 23.9243 17.9936 21.9996 17.9936C20.0973 17.9936 18.5307 16.427 18.5307 14.5247C18.5307 12.6 20.0749 11.0558 21.9996 11.0558ZM25.7819 29.9893C25.7147 30.0788 23.9915 32.0483 21.1492 32.0483H20.8135C19.6721 31.9812 18.7321 31.4888 18.1726 30.6384C17.4789 29.5865 17.367 28.1542 17.9041 26.5652L18.8217 23.8348C19.3364 22.313 18.844 22.0668 18.5755 21.9325L18.2622 21.8877C17.7027 21.8877 16.9194 22.2234 16.6732 22.3577C16.4494 22.4696 16.1584 22.4249 15.9794 22.2011C15.8227 21.9773 15.8227 21.6863 16.0018 21.4849C16.0689 21.3954 17.9488 19.2693 20.9701 19.4483C22.1115 19.5154 23.0515 20.0078 23.611 20.8582C24.3272 21.9101 24.4167 23.3424 23.8796 24.9538L22.962 27.6842C22.4472 29.206 22.9396 29.4522 23.2082 29.5865L23.5215 29.6312C24.081 29.6312 24.8643 29.2955 25.1105 29.1836C25.3567 29.0494 25.6252 29.1165 25.8043 29.3403C25.9609 29.497 25.9609 29.7879 25.7819 29.9893Z" fill="#EEA20E"/>
</svg>
