<svg width="80" height="35" viewBox="0 0 134 40" fill="none" xmlns="http://www.w3.org/2000/svg">
<g clipPath="url(#clip0_1_180)">
<path fillRule="evenodd" clip-rule="evenodd" d="M16.7068 5.33761L25.8721 15.5525L26.9762 14.322V5.33761H16.7065H16.7068ZM29.4429 19.5323L32.6506 23.1076H32.6607V39.4513H0.347101V23.1076H0.357467L3.21809 19.9194L0.0103656 16.3442H0V0.000488281H32.3136V16.3442H32.3032L29.4426 19.5323H29.4429ZM6.78891 15.9399L16.3016 5.33791H5.33742V14.3223L6.78891 15.9399ZM16.3597 34.1141L25.8724 23.5122L27.3238 25.1298V34.1141H16.36H16.3597ZM6.78891 23.8989L15.9545 34.1141H5.68482V25.1298L6.78891 23.8989ZM20.274 21.792L16.1568 26.3805L10.3594 19.9191L16.5042 13.0707L20.6214 17.6594L22.3018 19.532L20.2743 21.7917L20.274 21.792Z" fill="#EEA20E"/>
<path d="M41.1585 39.4475V9.73034H52.9285C54.0193 9.73034 55.2247 9.80083 56.5441 9.9418C57.8635 10.0828 59.1396 10.3997 60.3708 10.8916C61.6022 11.3841 62.6145 12.1592 63.4064 13.2147C64.1972 14.2699 64.594 15.7303 64.594 17.5952C64.594 18.7212 64.3731 19.759 63.9336 20.709C63.4944 21.6591 62.6853 22.4431 61.5057 23.0585C60.3273 23.6739 58.6471 24.0785 56.4644 24.2719C58.9984 24.2719 60.9521 24.6157 62.3237 25.3102C63.6958 26.0044 64.6465 26.8858 65.1739 27.941C65.7014 28.9962 65.9659 30.1747 65.9659 31.4769C65.9659 33.3768 65.5438 34.865 64.6992 35.9374C63.8551 37.0101 62.7638 37.8026 61.4266 38.3123C60.09 38.8226 58.6904 39.1398 57.2306 39.2624C55.7702 39.3856 54.4227 39.4472 53.1924 39.4472H41.1582L41.1585 39.4475ZM74.6934 39.7721C72.7568 39.7721 71.26 39.3761 70.2039 38.5836C69.1475 37.7913 68.408 36.7876 67.9854 35.5728C67.5628 34.3579 67.3075 33.1078 67.2195 31.8225C67.1316 30.5372 67.0874 29.4192 67.0874 28.4685V17.4821H73.3201V28.5215C73.3201 29.4369 73.3992 30.3349 73.5577 31.2154C73.7161 32.0956 74.0946 32.8087 74.6934 33.3545C75.292 33.9004 76.2427 34.1734 77.5458 34.1734C78.8134 34.1734 79.7465 33.8918 80.3451 33.3282C80.9436 32.7649 81.331 32.0603 81.5072 31.2154C81.6831 30.3701 81.7889 29.4899 81.8241 28.5745V17.4824H88.3737V39.244H82.8805L81.8241 35.441H81.7184C81.6832 35.5467 81.5511 35.8284 81.3224 36.2862C81.0935 36.7441 80.715 37.2369 80.1867 37.7653C79.6586 38.2933 78.9454 38.7601 78.0475 39.1649C77.1495 39.5701 76.0315 39.7724 74.6934 39.7724V39.7721ZM130.447 34.3304H133.999V39.6189H130.447V39.6192H125.169V9.44454H130.447V34.3304ZM46.4361 22.082H52.2948C53.5271 22.082 54.6797 22.011 55.7524 21.8706C56.8251 21.7299 57.6793 21.3873 58.3122 20.8414C58.9448 20.2959 59.2623 19.4074 59.2623 18.1757C59.2623 16.8738 58.9371 15.9414 58.2858 15.3784C57.6351 14.8154 56.7807 14.4633 55.7261 14.3232C54.67 14.1828 53.5259 14.1115 52.2945 14.1115H46.4358V22.082H46.4361ZM46.4894 35.1191H52.7701C54.1431 35.1191 55.4098 35.0302 56.5701 34.8555C57.7311 34.679 58.6649 34.2836 59.3683 33.6676C60.072 33.0516 60.4238 32.0754 60.4238 30.7377C60.4238 29.3658 60.0533 28.3539 59.3153 27.7032C58.5766 27.0522 57.6079 26.6385 56.4117 26.4626C55.2155 26.2875 53.8955 26.199 52.4529 26.199H46.4888V35.1191H46.4894ZM94.9645 15.0923C93.8036 15.0923 93.0386 14.811 92.6687 14.2477C92.2988 13.685 92.1148 12.9988 92.1148 12.1894C92.1148 11.4149 92.3076 10.7468 92.695 10.1838C93.0818 9.62106 93.8388 9.33911 94.9645 9.33911C96.0559 9.33911 96.788 9.62254 97.1555 10.1838C97.5233 10.7453 97.7096 11.4152 97.7096 12.1894C97.7096 12.9988 97.5233 13.6868 97.1555 14.2477C96.788 14.8098 96.0562 15.0923 94.9645 15.0923ZM92.2013 39.5739L92.2203 17.4679H97.6039L97.5852 39.5739H92.2016H92.2013ZM109.322 39.69C106.085 39.69 103.777 38.6745 102.408 36.6544C101.039 34.6346 100.349 31.9836 100.349 28.711C100.349 25.2978 101.054 22.5701 102.461 20.5296C103.868 18.4893 106.155 17.4681 109.322 17.4681C110.695 17.4681 111.851 17.6912 112.78 18.1274C113.709 18.5639 114.454 19.0905 114.997 19.6846C115.539 20.2793 115.941 20.8317 116.184 21.3212C116.427 21.8105 116.572 22.1131 116.607 22.2183H116.713V9.44454H122.255V39.5499C117.972 39.608 113.591 39.69 109.322 39.69H109.322ZM111.064 35.1499C113.07 35.1499 114.507 34.5398 115.366 33.3291C116.225 32.1184 116.66 30.5582 116.66 28.658C116.66 26.8277 116.245 25.3064 115.419 24.0927C114.592 22.8787 113.193 22.2719 111.223 22.2719C109.78 22.2719 108.641 22.5823 107.818 23.195C106.995 23.8069 106.42 24.6024 106.103 25.5702C105.786 26.5378 105.628 27.5667 105.628 28.658C105.628 29.7491 105.78 30.7996 106.076 31.7991C106.372 32.7986 106.924 33.6149 107.712 34.2267C108.501 34.8392 109.621 35.1502 111.064 35.1502V35.1499Z" fill="white"/>
</g>
<defs>
<clipPath id="clip0_1_180">
<rect width="134" height="39.7721" fill="white"/>
</clipPath>
</defs>
</svg>
