<svg width="23" height="23" viewBox="0 0 23 23" fill="none" xmlns="http://www.w3.org/2000/svg">
<path d="M8.59896 3.82019C10.0192 1.2734 10.7288 0 11.7903 0C12.8518 0 13.5614 1.2734 14.9816 3.82019L15.3493 4.4793C15.7528 5.20343 15.9546 5.5655 16.2685 5.80426C16.5823 6.04302 16.9747 6.13158 17.7593 6.30869L18.4723 6.4701C21.2298 7.09447 22.6074 7.40609 22.9359 8.4609C23.2632 9.51459 22.3238 10.6142 20.444 12.8124L19.9575 13.3807C19.4239 14.0051 19.156 14.3178 19.0361 14.7035C18.9162 15.0902 18.9565 15.5072 19.0372 16.34L19.1112 17.0989C19.3948 20.0324 19.5372 21.4986 18.6785 22.1499C17.8199 22.8023 16.5285 22.2071 13.9481 21.0189L13.2789 20.7117C12.5458 20.3732 12.1793 20.2051 11.7903 20.2051C11.4013 20.2051 11.0348 20.3732 10.3017 20.7117L9.63359 21.0189C7.05205 22.2071 5.76072 22.8012 4.9032 22.151C4.04343 21.4986 4.18579 20.0324 4.46939 17.0989L4.54338 16.3412C4.62408 15.5072 4.66444 15.0902 4.54338 14.7046C4.42456 14.3178 4.15665 14.0051 3.62308 13.3819L3.13659 12.8124C1.25676 10.6154 0.317407 9.51571 0.644724 8.4609C0.973161 7.40609 2.35193 7.09335 5.10945 6.4701L5.82238 6.30869C6.60592 6.13158 6.99713 6.04302 7.31211 5.80426C7.62598 5.5655 7.82775 5.20343 8.23129 4.4793L8.59896 3.82019Z" fill="#363A4D"/>
</svg>
