<svg width="32" height="37" viewBox="0 0 32 37" fill="none" xmlns="http://www.w3.org/2000/svg">
<path d="M8.87099 23.2637C8.50829 23.2637 8.26385 23.2957 8.1377 23.3277V25.4221C8.28751 25.4541 8.47477 25.463 8.733 25.463C9.67722 25.463 10.2587 25.0327 10.2587 24.3056C10.2587 23.6548 9.75804 23.2637 8.87099 23.2637ZM15.7446 23.285C15.3504 23.285 15.0941 23.317 14.9424 23.349V27.9895C15.0941 28.0215 15.3386 28.0215 15.5593 28.0215C17.1698 28.0322 18.2185 27.2321 18.2185 25.5395C18.2303 24.0638 17.2743 23.285 15.7446 23.285Z" fill="#FF7373"/>
<path d="M20.1722 0.720703H4.4024C3.3568 0.720703 2.35403 1.09534 1.61468 1.76221C0.875324 2.42908 0.459961 3.33354 0.459961 4.27663V32.7241C0.459961 33.6672 0.875324 34.5716 1.61468 35.2385C2.35403 35.9053 3.3568 36.28 4.4024 36.28H28.0571C29.1027 36.28 30.1054 35.9053 30.8448 35.2385C31.5841 34.5716 31.9995 33.6672 31.9995 32.7241V11.3885L20.1722 0.720703ZM11.2977 25.95C10.6886 26.4656 9.78975 26.6968 8.74303 26.6968C8.54008 26.6988 8.33721 26.6881 8.1359 26.6648V29.2001H6.37362V22.2021C7.16892 22.0951 7.97252 22.0463 8.77654 22.0563C9.87451 22.0563 10.6551 22.2447 11.1814 22.6234C11.6821 22.9826 12.0212 23.5711 12.0212 24.2645C12.0192 24.9615 11.7629 25.55 11.2977 25.95ZM18.8022 28.3592C17.9743 28.9797 16.7146 29.2748 15.1751 29.2748C14.2526 29.2748 13.6001 29.2215 13.1566 29.1681V22.2038C13.9522 22.0991 14.7555 22.0498 15.5595 22.0563C17.0517 22.0563 18.0216 22.2981 18.7785 22.8137C19.5966 23.3613 20.1091 24.2343 20.1091 25.4877C20.1091 26.8443 19.5591 27.7813 18.8022 28.3592ZM26.0858 23.4253H23.0659V25.045H25.8887V26.3501H23.0659V29.2019H21.28V22.1096H26.0858V23.4253ZM20.1722 13.1665H18.2009V4.27663L28.0571 13.1665H20.1722Z" fill="#FF7373"/>
</svg>
