<svg width="31" height="35" viewBox="0 0 31 35" fill="none" xmlns="http://www.w3.org/2000/svg">
<path fill-rule="evenodd" clip-rule="evenodd" d="M3.77468 0.720703H18.8734L30.1974 10.9345V31.3622C30.1974 32.2652 29.7997 33.1311 29.0919 33.7696C28.384 34.4081 27.4239 34.7668 26.4228 34.7668H3.77468C2.77357 34.7668 1.81347 34.4081 1.10558 33.7696C0.397688 33.1311 0 32.2652 0 31.3622V4.12532C0 3.22236 0.397688 2.35638 1.10558 1.71789C1.81347 1.0794 2.77357 0.720703 3.77468 0.720703ZM16.9861 12.6368H18.8734H26.4228L16.9861 4.12532V12.6368ZM5.75739 25.0957H7.04912V23.398H7.95332C8.52537 23.398 8.9867 23.2504 9.33731 22.9552C9.68792 22.6538 9.86323 22.2447 9.86323 21.728C9.86323 21.1191 9.691 20.6639 9.34654 20.3625C9.00823 20.0549 8.54382 19.9012 7.95332 19.9012H5.75739V25.0957ZM7.04912 20.9345H7.75956C8.02406 20.9345 8.2455 20.9991 8.42388 21.1283C8.60841 21.2513 8.70068 21.4451 8.70068 21.7096C8.70068 21.9679 8.60841 22.1648 8.42388 22.3001C8.23935 22.4292 8.01791 22.4938 7.75956 22.4938H7.04912V20.9345ZM10.4428 25.0957H11.7345V23.398H12.6387C13.2107 23.398 13.6721 23.2504 14.0227 22.9552C14.3733 22.6538 14.5486 22.2447 14.5486 21.728C14.5486 21.1191 14.3764 20.6639 14.0319 20.3625C13.6936 20.0549 13.2292 19.9012 12.6387 19.9012H10.4428V25.0957ZM11.7345 20.9345H12.4449C12.7094 20.9345 12.9309 20.9991 13.1093 21.1283C13.2938 21.2513 13.3861 21.4451 13.3861 21.7096C13.3861 21.9679 13.2938 22.1648 13.1093 22.3001C12.9247 22.4292 12.7033 22.4938 12.4449 22.4938H11.7345V20.9345ZM14.7591 19.9012V20.9991H16.1615V25.0957H17.4533V20.9991H18.8649V19.9012H14.7591ZM21.0283 22.3739L19.2475 25.0957H20.7422L21.8956 23.1581L23.0581 25.0957H24.5528L22.7629 22.3739L24.4052 19.9012H22.9105L21.8956 21.6265L20.8806 19.9012H19.3675L21.0283 22.3739Z" fill="#FACB6E"/>
</svg>
