<svg width="15" height="16" viewBox="0 0 15 16" fill="none" xmlns="http://www.w3.org/2000/svg">
<g clip-path="url(#clip0_375_8812)">
<path d="M7.94814 1.27895C7.90678 1.19548 7.84292 1.12523 7.76376 1.07612C7.6846 1.027 7.5933 1.00098 7.50014 1.00098C7.40699 1.00098 7.31569 1.027 7.23653 1.07612C7.15737 1.12523 7.09351 1.19548 7.05215 1.27895L5.00515 5.42595L0.428145 6.09095C0.335795 6.10436 0.249041 6.14335 0.177698 6.2035C0.106354 6.26365 0.0532684 6.34257 0.0244461 6.43133C-0.00437615 6.52009 -0.0077847 6.61514 0.0146061 6.70573C0.0369969 6.79632 0.0842934 6.87884 0.151145 6.94395L3.46315 10.1719L2.68114 14.7309C2.66546 14.8228 2.67577 14.9173 2.71091 15.0036C2.74605 15.0899 2.80463 15.1647 2.88003 15.2195C2.95542 15.2743 3.04464 15.307 3.13761 15.3138C3.23057 15.3206 3.32359 15.3012 3.40614 15.2579L7.50014 13.1049L11.5941 15.2579C11.6767 15.3012 11.7697 15.3206 11.8627 15.3138C11.9556 15.307 12.0449 15.2743 12.1203 15.2195C12.1957 15.1647 12.2542 15.0899 12.2894 15.0036C12.3245 14.9173 12.3348 14.8228 12.3191 14.7309L11.5371 10.1709L14.8491 6.94395C14.916 6.87884 14.9633 6.79632 14.9857 6.70573C15.0081 6.61514 15.0047 6.52009 14.9758 6.43133C14.947 6.34257 14.8939 6.26365 14.8226 6.2035C14.7512 6.14335 14.6645 6.10436 14.5721 6.09095L9.99514 5.42595L7.94814 1.27895Z" fill="#EEA20E"/>
</g>
<defs>
<clipPath id="clip0_375_8812">
<rect width="15" height="15" fill="white" transform="translate(0 0.5)"/>
</clipPath>
</defs>
</svg>
