<svg width="50" height="50" viewBox="0 0 56 56" fill="none" xmlns="http://www.w3.org/2000/svg">
<rect x="2.81268" y="3.09198" width="50.3274" height="50.3274" rx="23.8393" fill="#222532"/>
<rect x="2.81268" y="3.09198" width="50.3274" height="50.3274" rx="23.8393" stroke="#3B4051" stroke-width="4.41468"/>
<path d="M28.3413 26.3403C29.4022 26.3403 30.4196 25.9189 31.1697 25.1688C31.9199 24.4186 32.3413 23.4012 32.3413 22.3403C32.3413 21.2795 31.9199 20.2621 31.1697 19.5119C30.4196 18.7618 29.4022 18.3403 28.3413 18.3403C27.2804 18.3403 26.263 18.7618 25.5129 19.5119C24.7627 20.2621 24.3413 21.2795 24.3413 22.3403C24.3413 23.4012 24.7627 24.4186 25.5129 25.1688C26.263 25.9189 27.2804 26.3403 28.3413 26.3403ZM21.8413 29.3403C22.5043 29.3403 23.1402 29.0769 23.6091 28.6081C24.0779 28.1393 24.3413 27.5034 24.3413 26.8403C24.3413 26.1773 24.0779 25.5414 23.6091 25.0726C23.1402 24.6037 22.5043 24.3403 21.8413 24.3403C21.1783 24.3403 20.5424 24.6037 20.0735 25.0726C19.6047 25.5414 19.3413 26.1773 19.3413 26.8403C19.3413 27.5034 19.6047 28.1393 20.0735 28.6081C20.5424 29.0769 21.1783 29.3403 21.8413 29.3403ZM37.3413 26.8403C37.3413 27.5034 37.0779 28.1393 36.6091 28.6081C36.1402 29.0769 35.5044 29.3403 34.8413 29.3403C34.1783 29.3403 33.5424 29.0769 33.0735 28.6081C32.6047 28.1393 32.3413 27.5034 32.3413 26.8403C32.3413 26.1773 32.6047 25.5414 33.0735 25.0726C33.5424 24.6037 34.1783 24.3403 34.8413 24.3403C35.5044 24.3403 36.1402 24.6037 36.6091 25.0726C37.0779 25.5414 37.3413 26.1773 37.3413 26.8403ZM28.3413 27.3403C29.6674 27.3403 30.9392 27.8671 31.8768 28.8048C32.8145 29.7425 33.3413 31.0142 33.3413 32.3403V38.3403H23.3413V32.3403C23.3413 31.0142 23.8681 29.7425 24.8058 28.8048C25.7435 27.8671 27.0152 27.3403 28.3413 27.3403ZM21.3413 32.3403C21.3413 31.6473 21.4413 30.9783 21.6293 30.3463L21.4593 30.3603C20.6022 30.4544 19.81 30.8616 19.2346 31.5038C18.6592 32.1461 18.3411 32.9781 18.3413 33.8403V38.3403H21.3413V32.3403ZM38.3413 38.3403V33.8403C38.3414 32.9487 38.0012 32.0906 37.3902 31.4413C36.7791 30.792 35.9433 30.4003 35.0533 30.3463C35.2403 30.9783 35.3413 31.6473 35.3413 32.3403V38.3403H38.3413Z" fill="#EEA20E"/>
</svg>
