<svg width="50" height="49" viewBox="0 0 78 77" fill="none" xmlns="http://www.w3.org/2000/svg">
<rect x="3.92308" y="3.42308" width="70.1538" height="70.1538" rx="33.2308" fill="#222532"/>
<rect x="3.92308" y="3.42308" width="70.1538" height="70.1538" rx="33.2308" stroke="#3B4051" stroke-width="6.15385"/>
<path fill-rule="evenodd" clipRule="evenodd" d="M53.4119 30.3281C53.319 30.3318 53.2167 30.3434 53.1095 30.3555L48.8776 30.8338C45.4116 31.2255 42.7551 34.2891 43.1571 37.8455C43.559 41.402 46.8339 43.7953 50.2982 43.4037L54.5301 42.9255C54.6373 42.9133 54.7396 42.9018 54.8343 42.8843C55.5418 42.7608 56.1803 42.3844 56.6308 41.8251C57.0813 41.2658 57.3131 40.5617 57.283 39.8442C57.2783 39.7429 57.266 39.6339 57.2547 39.5334L56.5224 33.054C56.511 32.9534 56.4987 32.8445 56.4806 32.7447C56.3498 32.0385 55.9668 31.404 55.4028 30.9593C54.8388 30.5146 54.1324 30.2902 53.4153 30.3277M49.4069 38.8366C50.2985 38.7358 50.936 37.9034 50.8315 36.9782C50.7269 36.0531 49.9197 35.3838 49.0281 35.4846C48.1348 35.5856 47.4973 36.4181 47.6018 37.3432C47.7064 38.2684 48.5136 38.9376 49.4069 38.8366Z" fill="#EEA20E"/>
<path fill-rule="evenodd" clipRule="evenodd" d="M54.8114 45.4392C54.8691 45.4303 54.9281 45.4352 54.9835 45.4534C55.039 45.4716 55.0893 45.5026 55.1305 45.5439C55.1718 45.5852 55.2027 45.6357 55.2207 45.6912C55.2388 45.7467 55.2435 45.8056 55.2345 45.8633C55.0341 47.0945 54.6146 48.1739 53.8548 49.1255C52.7416 50.5243 51.2137 51.2588 49.2794 51.7456C47.3977 52.218 44.9592 52.4936 41.8787 52.8417L38.339 53.2418C35.2585 53.5899 32.8182 53.8657 30.8803 53.825C28.8861 53.7822 27.2327 53.4055 25.8357 52.2937C24.4402 51.1801 23.704 49.6525 23.2172 47.7181C22.7448 45.8365 22.4692 43.3979 22.1211 40.3174L22.0999 40.1297C21.7517 37.0492 21.476 34.609 21.5165 32.6694C21.5593 30.6752 21.9359 29.0218 23.0477 27.6248C24.1614 26.2292 25.689 25.4931 27.6233 25.0063C29.5052 24.5356 31.9438 24.26 35.0242 23.9118L38.5639 23.5118C41.6444 23.1636 44.0847 22.8879 46.0226 22.9285C48.0168 22.9714 49.6702 23.348 51.0672 24.4598C52.0206 25.2211 52.6702 26.178 53.1403 27.3335C53.162 27.3877 53.1705 27.4462 53.1653 27.5043C53.1601 27.5624 53.1413 27.6185 53.1103 27.668C53.0793 27.7175 53.0372 27.7589 52.9872 27.789C52.9372 27.8191 52.8808 27.837 52.8226 27.8413L48.5924 28.3193C43.8376 28.8567 40.0718 33.0845 40.642 38.1292C41.2121 43.174 45.8264 46.4547 50.5812 45.9173L54.8114 45.4392ZM27.4958 31.5523C27.1624 31.59 26.8576 31.7585 26.6485 32.0209C26.4395 32.2833 26.3432 32.618 26.3808 32.9513C26.4185 33.2847 26.5871 33.5895 26.8494 33.7986C27.1118 34.0076 27.4465 34.1039 27.7799 34.0663L34.4839 33.3086C34.8172 33.2709 35.122 33.1024 35.3311 32.84C35.5402 32.5776 35.6365 32.2429 35.5988 31.9096C35.5611 31.5762 35.3926 31.2714 35.1302 31.0623C34.8678 30.8532 34.5331 30.7569 34.1998 30.7946L27.4958 31.5523Z" fill="#EEA20E"/>
</svg>
