<svg width="50" height="50" viewBox="0 0 55 54" fill="none" xmlns="http://www.w3.org/2000/svg">
<path d="M54.0107 27C54.0107 41.9117 41.9224 54 27.0107 54C12.0991 54 0.0107422 41.9117 0.0107422 27C0.0107422 12.0883 12.0991 0 27.0107 0C41.9224 0 54.0107 12.0883 54.0107 27ZM6.76074 27C6.76074 38.1838 15.827 47.25 27.0107 47.25C38.1945 47.25 47.2607 38.1838 47.2607 27C47.2607 15.8162 38.1945 6.75 27.0107 6.75C15.827 6.75 6.76074 15.8162 6.76074 27Z" fill="#363C53"/>
<path d="M22.9275 33.2016C21.7371 33.2016 20.8539 32.8224 20.2779 32.064C19.7019 31.296 19.4139 30.264 19.4139 28.968C19.4139 28.1136 19.5339 27.3744 19.7739 26.7504C20.0235 26.1168 20.4075 25.6272 20.9259 25.2816C21.4443 24.9264 22.1115 24.7488 22.9275 24.7488C24.1371 24.7488 25.0251 25.1328 25.5915 25.9008C26.1579 26.6592 26.4411 27.6816 26.4411 28.968C26.4411 29.8032 26.3163 30.5424 26.0667 31.1856C25.8171 31.8192 25.4331 32.3136 24.9147 32.6688C24.3963 33.024 23.7339 33.2016 22.9275 33.2016ZM22.9275 31.9776C23.6667 31.9776 24.2091 31.7232 24.5547 31.2144C24.9003 30.696 25.0731 29.9472 25.0731 28.968C25.0731 27.9888 24.9003 27.2448 24.5547 26.736C24.2187 26.2272 23.6763 25.9728 22.9275 25.9728C22.1979 25.9728 21.6555 26.2176 21.3003 26.7072C20.9547 27.1968 20.7819 27.9504 20.7819 28.968C20.7819 29.9472 20.9499 30.696 21.2859 31.2144C21.6315 31.7232 22.1787 31.9776 22.9275 31.9776ZM28.8016 28.1904C28.264 28.1904 27.8704 28.0368 27.6208 27.7296C27.3712 27.4224 27.2464 27.0096 27.2464 26.4912C27.2464 25.9632 27.3664 25.5408 27.6064 25.224C27.856 24.9072 28.2544 24.7488 28.8016 24.7488C29.3488 24.7488 29.7472 24.9072 29.9968 25.224C30.256 25.5408 30.3856 25.9632 30.3856 26.4912C30.3856 26.9808 30.256 27.3888 29.9968 27.7152C29.7472 28.032 29.3488 28.1904 28.8016 28.1904ZM28.7008 33L27.6928 32.28L31.0624 28.6656L33.8128 24.8928L34.8208 25.5984L31.552 29.0688L28.7008 33ZM28.7872 27.2688C29.0272 27.2688 29.1952 27.192 29.2912 27.0384C29.3872 26.8848 29.4352 26.6928 29.4352 26.4624C29.4352 26.2224 29.3872 26.0256 29.2912 25.872C29.1952 25.7088 29.0272 25.6272 28.7872 25.6272C28.5568 25.6272 28.3888 25.7088 28.2832 25.872C28.1872 26.0256 28.1392 26.2224 28.1392 26.4624C28.1392 26.6928 28.1872 26.8848 28.2832 27.0384C28.3888 27.192 28.5568 27.2688 28.7872 27.2688ZM33.6688 33.144C33.1312 33.144 32.7376 32.9904 32.488 32.6832C32.248 32.3664 32.128 31.9392 32.128 31.4016C32.128 30.8928 32.248 30.4848 32.488 30.1776C32.728 29.8608 33.1216 29.7024 33.6688 29.7024C34.216 29.7024 34.6144 29.8608 34.864 30.1776C35.1136 30.4848 35.2384 30.8928 35.2384 31.4016C35.2384 31.92 35.1136 32.3424 34.864 32.6688C34.6144 32.9856 34.216 33.144 33.6688 33.144ZM33.64 32.2224C33.8896 32.2224 34.0624 32.1456 34.1584 31.992C34.264 31.8384 34.3168 31.6464 34.3168 31.416C34.3168 31.176 34.264 30.9792 34.1584 30.8256C34.0624 30.6624 33.8896 30.5808 33.64 30.5808C33.4096 30.5808 33.2416 30.6576 33.136 30.8112C33.04 30.9648 32.992 31.1664 32.992 31.416C32.992 31.6464 33.04 31.8384 33.136 31.992C33.2416 32.1456 33.4096 32.2224 33.64 32.2224Z" fill="white"/>
</svg>
